<svg id="a73df75a-f428-4c9d-ac0d-f4d3243f0a93" data-name="Layer 1" xmlns="http://www.w3.org/2000/svg" viewBox="0 0 434 90"><title>_</title><g id="be63715e-c073-4303-ba73-79068888e698" data-name="Layer 1-2"><path d="M146.24,24.87h9.49l8.33,27.27,9-27.38h7.59l9,27.38L198,24.87h9.26L193.54,65.42h-7.67l-9.08-26.37-9.1,26.37H160Z" fill="#f5d119"/><path d="M220.56,24.58h8.17L246,65.13h-9.26l-3.68-9H216l-3.64,9h-9Zm9.32,23.7-5.35-13.06-5.35,13.06Z" fill="#f5d119"/><path d="M252.19,24.87h8.17l18.86,24.79V24.87H288V65.13h-7.54L261,39.54V65.13H252.2Z" fill="#f5d119"/><path d="M314.89,24.87h16.44c9.61,0,15.42,5.7,15.42,13.93v.11c0,9.32-7.25,14.15-16.28,14.15h-6.73V65.13h-8.85Zm15.87,20.31c4.43,0,7-2.64,7-6.1V39c0-4-2.78-6.1-7.19-6.1h-6.85V45.17Z" fill="#f5d119"/><path d="M353.31,24.87h8.17l18.84,24.79V24.87h8.74V65.13h-7.51L362,39.53v25.6h-8.73Z" fill="#f5d119"/><path d="M395.64,45.12V45a20.66,20.66,0,0,1,21.11-20.82c7.24,0,11.61,2,15.81,5.55L427,36.46c-3.1-2.59-5.86-4.08-10.52-4.08-6.45,0-11.56,5.69-11.56,12.53V45c0,7.36,5.06,12.77,12.19,12.77a14.1,14.1,0,0,0,8.33-2.42V49.6h-8.93V42H434V59.44a26.15,26.15,0,0,1-17.2,6.38C404.27,65.82,395.64,57,395.64,45.12Z" fill="#f5d119"/><polygon points="51.02 76.23 77.88 76.23 64.45 53.23 51.02 76.23" fill="#d71f27"/><polygon points="48.68 26.23 36.47 47.14 16.99 13.77 0 13.77 36.47 76.23 57.17 40.77 48.68 26.23" fill="#d71f27"/><polygon points="111.91 13.77 92.42 47.14 72.94 13.77 55.95 13.77 92.42 76.23 128.89 13.77 111.91 13.77" fill="#d71f27"/></g></svg>